<svg width="20" height="20" viewBox="0 0 20 20" fill="none" xmlns="http://www.w3.org/2000/svg">
<path d="M3.95833 20C3.8775 20 3.79667 19.9842 3.71917 19.9525C3.48583 19.8558 3.33333 19.6275 3.33333 19.375V15.8333H2.29167C1.0275 15.8333 0 14.8058 0 13.5417V2.29167C0 1.0275 1.0275 0 2.29167 0H17.7083C18.9725 0 20 1.0275 20 2.29167V13.5417C20 14.8058 18.9725 15.8333 17.7083 15.8333H8.38417L4.40083 19.8167C4.28083 19.9367 4.12083 20 3.95833 20ZM2.29167 1.25C1.7175 1.25 1.25 1.7175 1.25 2.29167V13.5417C1.25 14.1158 1.7175 14.5833 2.29167 14.5833H3.95833C4.30333 14.5833 4.58333 14.8633 4.58333 15.2083V17.8658L7.68333 14.7658C7.80083 14.6483 7.95917 14.5825 8.125 14.5825H17.7083C18.2825 14.5825 18.75 14.115 18.75 13.5408V2.29167C18.75 1.7175 18.2825 1.25 17.7083 1.25H2.29167Z" fill="#262626"/>
</svg>
