<svg width="71" height="70" viewBox="0 0 71 70" fill="none" xmlns="http://www.w3.org/2000/svg">
<path d="M61.731 21.9625C56.7543 12.0138 46.7894 5.83337 35.7214 5.83337C19.6739 5.83337 6.61816 18.9175 6.61816 35C6.61816 51.0825 19.6739 64.1667 35.7214 64.1667C46.7894 64.1667 56.7543 57.9863 61.731 48.0375C62.0644 47.371 62.1305 46.6018 61.9156 45.8879C61.7007 45.174 61.2212 44.5697 60.5756 44.1992L44.5018 35L60.5726 25.8038C61.9143 25.0338 62.4236 23.348 61.731 21.9625ZM37.1882 32.4684C36.7423 32.723 36.3716 33.0913 36.1138 33.536C35.8559 33.9806 35.7201 34.4858 35.7201 35C35.7201 35.5143 35.8559 36.0195 36.1138 36.4641C36.3716 36.9088 36.7423 37.2771 37.1882 37.5317L55.1536 47.813C53.0466 51.0511 50.165 53.7099 46.7712 55.5473C43.3773 57.3847 39.5788 58.3424 35.7214 58.3334C22.884 58.3334 12.4388 47.8655 12.4388 35C12.4388 22.1346 22.884 11.6667 35.7214 11.6667C39.5785 11.6576 43.3767 12.615 46.7705 14.4519C50.1643 16.2887 53.0461 18.9468 55.1536 22.1842L37.1882 32.4684Z" fill="#333333"/>
<path d="M34.2659 26.25C36.6769 26.25 38.6314 24.2912 38.6314 21.875C38.6314 19.4588 36.6769 17.5 34.2659 17.5C31.8549 17.5 29.9004 19.4588 29.9004 21.875C29.9004 24.2912 31.8549 26.25 34.2659 26.25Z" fill="#333333"/>
</svg>
