<svg width="26" height="30" viewBox="0 0 30 30" fill="none" xmlns="http://www.w3.org/2000/svg">
<path d="M22.5291 2.63492C20.2311 1.325 17.7212 0.670166 15 0.670166C12.2784 0.670166 9.76857 1.325 7.47051 2.63492C5.17245 3.94488 3.35276 5.72205 2.01176 7.9661C0.670501 10.2107 0 12.6619 0 15.3196C0 18.2825 0.826471 20.9721 2.48035 23.3879C4.13391 25.8045 6.30169 27.5909 8.98427 28.7479C8.93195 27.3872 9.01664 26.262 9.23819 25.3719L11.1717 17.3986C10.8461 16.7757 10.6835 16.0001 10.6835 15.0716C10.6835 13.9907 10.9634 13.0876 11.5233 12.3631C12.0828 11.638 12.7666 11.2754 13.574 11.2754C14.2248 11.2754 14.7264 11.485 15.078 11.9052C15.4296 12.3247 15.6055 12.8526 15.6055 13.4882C15.6055 13.8827 15.5304 14.3629 15.381 14.9285C15.2311 15.4944 15.0358 16.1492 14.7952 16.8932C14.5542 17.637 14.3818 18.2314 14.2775 18.6766C14.0949 19.4522 14.2448 20.1166 14.7267 20.6699C15.2082 21.2231 15.8464 21.4995 16.6408 21.4995C18.0341 21.4995 19.1767 20.7432 20.0687 19.2298C20.9606 17.7165 21.4065 15.879 21.4065 13.7169C21.4065 12.0513 20.8566 10.6967 19.7562 9.65397C18.6559 8.61152 17.1224 8.08984 15.1566 8.08984C12.9558 8.08984 11.1752 8.77999 9.81483 10.1593C8.4542 11.5392 7.77385 13.1894 7.77385 15.109C7.77385 16.2535 8.1061 17.2139 8.76992 17.9896C8.99121 18.244 9.06285 18.5171 8.98484 18.8094C8.95852 18.8859 8.90657 19.0765 8.82856 19.3815C8.7506 19.6865 8.69828 19.8841 8.67228 19.9728C8.56795 20.38 8.32071 20.5073 7.92983 20.3543C6.92713 19.9474 6.1653 19.2419 5.64477 18.2372C5.12391 17.2328 4.86362 16.0693 4.86362 14.7467C4.86362 13.8946 5.00343 13.0426 5.28336 12.1905C5.56328 11.3385 5.99918 10.5153 6.59203 9.72015C7.18421 8.92599 7.89403 8.22289 8.72112 7.61263C9.54791 7.00207 10.5538 6.51291 11.7388 6.14351C12.9235 5.77506 14.1998 5.59056 15.567 5.59056C17.4159 5.59056 19.0762 5.99118 20.5474 6.79212C22.0186 7.59341 23.1419 8.62999 23.9166 9.90151C24.6911 11.1731 25.0788 12.5335 25.0788 13.9837C25.0788 15.8912 24.74 17.608 24.0632 19.1341C23.3861 20.6602 22.4289 21.8586 21.1919 22.7296C19.9546 23.6005 18.5483 24.0361 16.973 24.0361C16.1786 24.0361 15.4364 23.855 14.7464 23.4924C14.0559 23.1298 13.5807 22.7007 13.3204 22.2047C12.7345 24.4552 12.383 25.7975 12.2657 26.2294C12.0181 27.1325 11.5103 28.1749 10.7421 29.3576C12.1354 29.7645 13.5546 29.9678 15 29.9678C17.7212 29.9678 20.2311 29.3131 22.5291 28.0034C24.8271 26.6934 26.6468 24.9163 27.9882 22.6716C29.3291 20.4272 30 17.9764 30 15.3183C30 12.6604 29.3291 10.2095 27.9882 7.96489C26.6471 5.72205 24.8271 3.94488 22.5291 2.63492Z" fill="black"/>
</svg>
