<svg width="71" height="70" viewBox="0 0 71 70" fill="none" xmlns="http://www.w3.org/2000/svg">
<path d="M16.634 56.8751C15.5726 56.8769 14.5156 56.7371 13.4909 56.4594C10.4152 55.5804 7.80579 53.5283 6.2225 50.7433C4.63921 47.9583 4.20817 44.6624 5.02185 41.5626L10.1076 22.2251C10.5037 20.6601 11.2078 19.1902 12.1787 17.9017C13.1495 16.6132 14.3674 15.5321 15.7609 14.7219C17.1178 13.9343 18.6171 13.4244 20.172 13.2216C21.7269 13.0188 23.3065 13.1273 24.8193 13.5407C26.4274 13.9882 27.9252 14.7657 29.2178 15.8238C30.5103 16.882 31.5694 18.1977 32.328 19.6876H38.0031C38.7583 18.1953 39.8164 16.8777 41.1094 15.8191C42.4024 14.7606 43.9019 13.9845 45.5117 13.5407C47.0245 13.1273 48.6041 13.0188 50.159 13.2216C51.7139 13.4244 53.2132 13.9343 54.5701 14.7219C55.9569 15.5301 57.1703 16.6052 58.1406 17.8854C59.1109 19.1657 59.8187 20.6257 60.2234 22.1813L65.3092 41.5626C66.135 44.6714 65.7074 47.9811 64.1187 50.7766C62.53 53.5721 59.9077 55.6291 56.8183 56.5032C55.3055 56.9166 53.7259 57.025 52.171 56.8223C50.6161 56.6195 49.1168 56.1096 47.7599 55.3219C46.3709 54.5167 45.1557 53.4424 44.1851 52.1618C43.2145 50.8811 42.508 49.4197 42.1066 47.8626L41.7137 45.9376H28.6173L28.1153 47.8188C27.7139 49.3759 27.0074 50.8374 26.0368 52.118C25.0662 53.3987 23.851 54.473 22.462 55.2782C20.6884 56.3033 18.6813 56.8533 16.634 56.8751ZM21.698 17.5001C20.3808 17.5046 19.0873 17.8513 17.9437 18.5063C16.1513 19.5602 14.8485 21.2827 14.3203 23.2969L9.23454 42.6344C8.70236 44.6267 8.97127 46.7487 9.98348 48.5443C10.9957 50.34 12.6704 51.6661 14.6477 52.2376C15.6027 52.4986 16.5998 52.5673 17.5815 52.4396C18.5631 52.312 19.5097 51.9905 20.3665 51.4938C21.2586 50.9777 22.0387 50.2879 22.661 49.4652C23.2832 48.6425 23.735 47.7034 23.9899 46.7032L25.3432 41.5626H44.9879L46.3193 46.7032C46.5787 47.7015 47.0323 48.6387 47.6541 49.4608C48.2759 50.2829 49.0536 50.9738 49.9427 51.4938C50.8037 51.99 51.754 52.3111 52.7391 52.4387C53.7241 52.5664 54.7246 52.498 55.6833 52.2376C57.663 51.6714 59.3398 50.3452 60.3493 48.547C61.3588 46.7489 61.6195 44.6241 61.0747 42.6344L55.9889 23.2969C55.7355 22.299 55.2866 21.3615 54.6683 20.5391C54.05 19.7166 53.2746 19.0257 52.3874 18.5063C51.5263 18.0101 50.576 17.689 49.591 17.5614C48.6059 17.4338 47.6054 17.5021 46.6467 17.7626C45.4612 18.1013 44.3734 18.7185 43.4736 19.5632C42.5739 20.4078 41.8883 21.4553 41.4736 22.6188L40.9498 24.0626H29.3813L28.8574 22.6188C28.4391 21.4538 27.7496 20.4055 26.8461 19.5609C25.9426 18.7163 24.8512 18.0998 23.6625 17.7626C23.0219 17.5895 22.3615 17.5012 21.698 17.5001Z" fill="#333333"/>
<path d="M22.0691 35C21.2057 35 20.3617 34.7434 19.6438 34.2627C18.9259 33.7819 18.3663 33.0987 18.0359 32.2992C17.7055 31.4998 17.6191 30.6201 17.7875 29.7715C17.9559 28.9228 18.3717 28.1433 18.9822 27.5314C19.5928 26.9196 20.3706 26.5029 21.2174 26.3341C22.0643 26.1653 22.942 26.2519 23.7397 26.583C24.5374 26.9142 25.2192 27.4749 25.6989 28.1944C26.1786 28.9138 26.4346 29.7597 26.4346 30.625C26.4346 31.7853 25.9746 32.8981 25.156 33.7186C24.3373 34.5391 23.2269 35 22.0691 35Z" fill="#333333"/>
<path d="M48.2618 28.4375C49.4673 28.4375 50.4446 27.4581 50.4446 26.25C50.4446 25.0419 49.4673 24.0625 48.2618 24.0625C47.0563 24.0625 46.0791 25.0419 46.0791 26.25C46.0791 27.4581 47.0563 28.4375 48.2618 28.4375Z" fill="#333333"/>
<path d="M48.2618 37.1875C49.4673 37.1875 50.4446 36.2081 50.4446 35C50.4446 33.7919 49.4673 32.8125 48.2618 32.8125C47.0563 32.8125 46.0791 33.7919 46.0791 35C46.0791 36.2081 47.0563 37.1875 48.2618 37.1875Z" fill="#333333"/>
<path d="M43.8966 32.8125C45.1021 32.8125 46.0793 31.8331 46.0793 30.625C46.0793 29.4169 45.1021 28.4375 43.8966 28.4375C42.6911 28.4375 41.7139 29.4169 41.7139 30.625C41.7139 31.8331 42.6911 32.8125 43.8966 32.8125Z" fill="#333333"/>
<path d="M52.6276 32.8125C53.8331 32.8125 54.8103 31.8331 54.8103 30.625C54.8103 29.4169 53.8331 28.4375 52.6276 28.4375C51.4221 28.4375 50.4448 29.4169 50.4448 30.625C50.4448 31.8331 51.4221 32.8125 52.6276 32.8125Z" fill="#333333"/>
</svg>
