<svg width="13" height="30" viewBox="0 0 17 30" fill="none" xmlns="http://www.w3.org/2000/svg">
<path d="M11.875 5.5531H15.625C15.9702 5.5531 16.25 5.27981 16.25 4.94271V1.2805C16.25 0.943459 15.9702 0.670166 15.625 0.670166H11.875C8.07977 0.674229 5.00413 3.67782 5.00003 7.3842V11.6568H0.625018C0.279843 11.6568 0 11.9301 0 12.2672V15.9294C0 16.2665 0.279843 16.5398 0.625018 16.5398H5.00003V29.3575C5.00003 29.6946 5.27987 29.9679 5.62505 29.9679H9.37504C9.72021 29.9679 10.0001 29.6946 10.0001 29.3575V16.5398H14.3751C14.6439 16.5396 14.8826 16.3714 14.9676 16.1223L16.2175 12.4601C16.3266 12.1403 16.1496 11.7947 15.8221 11.6881C15.7586 11.6674 15.692 11.6569 15.625 11.6568H10.0001V7.3842C10 6.37292 10.8395 5.5531 11.875 5.5531Z" fill="black"/>
</svg>
