<svg width="30" height="29" viewBox="0 0 30 29" fill="none" xmlns="http://www.w3.org/2000/svg">
<path d="M15 7.21924C10.8581 7.21924 7.5 10.3278 7.5 14.1619C7.5 17.996 10.8581 21.1046 15 21.1046C19.1419 21.1046 22.5 17.996 22.5 14.1619C22.5 10.3278 19.1419 7.21924 15 7.21924ZM15 18.5011C12.4162 18.5011 10.3125 16.5537 10.3125 14.1619C10.3125 11.7684 12.4162 9.82274 15 9.82274C17.5837 9.82274 19.6875 11.7684 19.6875 14.1619C19.6875 16.5537 17.5837 18.5011 15 18.5011Z" fill="white"/>
<path d="M20.625 0.276489H9.375C4.19813 0.276489 0 4.16265 0 8.95483V19.3688C0 24.161 4.19813 28.0472 9.375 28.0472H20.625C25.8019 28.0472 30 24.161 30 19.3688V8.95483C30 4.16265 25.8019 0.276489 20.625 0.276489ZM27.1875 19.3688C27.1875 22.7187 24.2437 25.4437 20.625 25.4437H9.375C5.75625 25.4437 2.8125 22.7187 2.8125 19.3688V8.95483C2.8125 5.60499 5.75625 2.87999 9.375 2.87999H20.625C24.2437 2.87999 27.1875 5.60499 27.1875 8.95483V19.3688Z" fill="white"/>
</svg>
