<svg width="20" height="20" viewBox="0 0 20 20" fill="none" xmlns="http://www.w3.org/2000/svg">
<path d="M20 11.8749C20 11.3741 19.8008 10.9074 19.4575 10.5633C19.8467 10.1374 20.045 9.56659 19.9908 8.97245C19.8933 7.91327 18.9391 7.08327 17.8175 7.08327H12.67C12.925 6.30909 13.3333 4.88995 13.3333 3.74995C13.3333 1.94245 11.7975 0.416626 10.8333 0.416626C9.96832 0.416626 9.34914 0.904126 9.32332 0.924126C9.22414 1.00331 9.16664 1.12331 9.16664 1.24995V4.07577L6.76582 9.27495L6.66664 9.32577V9.16659C6.66664 8.93659 6.47996 8.74991 6.24996 8.74991H2.08332C0.93418 8.74995 0 9.68413 0 10.8333V17.4999C0 18.6491 0.93418 19.5833 2.08332 19.5833H4.58332C5.48414 19.5833 6.25414 19.0083 6.54414 18.2058C7.2375 18.5624 8.17082 18.7499 8.75 18.7499H16.3992C17.3067 18.7499 18.1009 18.1383 18.2875 17.2949C18.3833 16.8599 18.3275 16.4224 18.1375 16.0424C18.7525 15.7333 19.1667 15.0974 19.1667 14.3749C19.1667 14.0799 19.0992 13.7974 18.9717 13.5424C19.5867 13.2324 20 12.5974 20 11.8749ZM18.2425 12.9033C18.0817 12.9224 17.9458 13.0316 17.8942 13.1858C17.8434 13.3399 17.8859 13.5091 18.0042 13.6208C18.2159 13.8199 18.3334 14.0883 18.3334 14.3749C18.3334 14.9008 17.9359 15.3424 17.41 15.4033C17.2492 15.4224 17.1134 15.5316 17.0617 15.6858C17.0109 15.8399 17.0534 16.0091 17.1717 16.1208C17.4459 16.3791 17.5559 16.7416 17.4734 17.1149C17.3709 17.5799 16.9192 17.9166 16.3992 17.9166H8.75C8.07332 17.9166 6.93832 17.5991 6.545 17.2049C6.42582 17.0866 6.24582 17.0516 6.09082 17.1149C5.935 17.1791 5.83332 17.3316 5.83332 17.4999C5.83332 18.1891 5.2725 18.7499 4.58332 18.7499H2.08332C1.39414 18.7499 0.83332 18.1891 0.83332 17.4999V10.8333C0.83332 10.1441 1.39414 9.58327 2.08332 9.58327H5.83332V9.99995C5.83332 10.1441 5.90832 10.2783 6.03164 10.3549C6.15332 10.4283 6.30664 10.4358 6.43664 10.3724L7.26996 9.95577C7.35414 9.91409 7.42164 9.84409 7.46164 9.75827L9.96164 4.34159C9.98664 4.28659 9.99996 4.22659 9.99996 4.16659V1.47577C10.1733 1.37995 10.4742 1.24995 10.8333 1.24995C11.29 1.24995 12.5 2.38495 12.5 3.74995C12.5 5.21663 11.7017 7.33077 11.6942 7.35163C11.6459 7.47913 11.6625 7.6233 11.74 7.73663C11.8183 7.84913 11.9467 7.91663 12.0833 7.91663H17.8175C18.5125 7.91663 19.1025 8.41413 19.1608 9.04913C19.205 9.52413 18.9766 9.97581 18.5675 10.2283C18.44 10.3066 18.3642 10.4483 18.37 10.5991C18.3758 10.7499 18.4625 10.8849 18.5958 10.9541C18.9483 11.1333 19.1666 11.4866 19.1666 11.8749C19.1667 12.4008 18.7692 12.8424 18.2425 12.9033Z" fill="black"/>
<mask id="path-2-inside-1" fill="white">
<path d="M6.24993 9.58337C6.01993 9.58337 5.83325 9.77005 5.83325 10.0001V17.5001C5.83325 17.7301 6.01993 17.9167 6.24993 17.9167C6.47993 17.9167 6.66661 17.7301 6.66661 17.5001V10.0001C6.66661 9.77005 6.47993 9.58337 6.24993 9.58337Z"/>
</mask>
<path d="M6.24993 9.58337C6.01993 9.58337 5.83325 9.77005 5.83325 10.0001V17.5001C5.83325 17.7301 6.01993 17.9167 6.24993 17.9167C6.47993 17.9167 6.66661 17.7301 6.66661 17.5001V10.0001C6.66661 9.77005 6.47993 9.58337 6.24993 9.58337Z" fill="black"/>
<path d="M6.24993 8.58337C5.46765 8.58337 4.83325 9.21777 4.83325 10.0001H6.83325C6.83325 10.3223 6.57222 10.5834 6.24993 10.5834V8.58337ZM4.83325 10.0001V17.5001H6.83325V10.0001H4.83325ZM4.83325 17.5001C4.83325 18.2823 5.46765 18.9167 6.24993 18.9167V16.9167C6.57222 16.9167 6.83325 17.1778 6.83325 17.5001H4.83325ZM6.24993 18.9167C7.03222 18.9167 7.66661 18.2823 7.66661 17.5001H5.66661C5.66661 17.1778 5.92765 16.9167 6.24993 16.9167V18.9167ZM7.66661 17.5001V10.0001H5.66661V17.5001H7.66661ZM7.66661 10.0001C7.66661 9.21777 7.03222 8.58337 6.24993 8.58337V10.5834C5.92765 10.5834 5.66661 10.3223 5.66661 10.0001H7.66661Z" fill="black" mask="url(#path-2-inside-1)"/>
</svg>
