<svg width="73" viewBox="0 0 43 57" fill="none" xmlns="http://www.w3.org/2000/svg">
<path fill-rule="evenodd" clip-rule="evenodd" d="M33.9638 1.17047C34.3367 1.36665 34.6252 1.67178 34.7823 2.03602C34.9394 2.40025 34.9557 2.80207 34.8286 3.17582L27.9673 23.4091H40.6271C40.9991 23.4089 41.363 23.5077 41.6739 23.6931C41.9849 23.8785 42.2291 24.1425 42.3766 24.4525C42.5241 24.7625 42.5683 25.1049 42.5039 25.4374C42.4394 25.77 42.269 26.0781 42.0138 26.3237L11.5359 55.7125C11.241 55.997 10.8486 56.1826 10.4226 56.2389C9.99659 56.2951 9.56216 56.2188 9.19011 56.0223C8.81805 55.8258 8.5303 55.5207 8.37376 55.1568C8.21722 54.7929 8.20112 54.3916 8.32808 54.0183L15.1894 33.7816H2.52965C2.15761 33.7817 1.79367 33.683 1.48276 33.4975C1.17185 33.3121 0.92757 33.0481 0.780088 32.7381C0.632605 32.4281 0.588372 32.0857 0.652849 31.7532C0.717325 31.4207 0.887688 31.1126 1.14291 30.8669L31.6208 1.47819C31.9154 1.19398 32.3072 1.00856 32.7326 0.95206C33.158 0.895564 33.5919 0.971323 33.9638 1.16702V1.17047ZM6.93752 30.3241H17.7686C18.0667 30.324 18.3607 30.3875 18.6268 30.5093C18.893 30.6311 19.1239 30.808 19.3011 31.0256C19.4782 31.2432 19.5966 31.4955 19.6467 31.7621C19.6969 32.0288 19.6773 32.3025 19.5897 32.5611L14.3779 47.9227L36.2154 26.8666H25.3881C25.09 26.8666 24.796 26.8032 24.5299 26.6813C24.2637 26.5595 24.0328 26.3827 23.8556 26.1651C23.6785 25.9475 23.5601 25.6952 23.51 25.4285C23.4598 25.1618 23.4794 24.8882 23.567 24.6296L28.7788 9.26793L6.93752 30.3241Z" fill="#FF0000"/>
</svg>
