<svg width="30" height="30" viewBox="0 0 30 30" fill="none" xmlns="http://www.w3.org/2000/svg">
<path d="M0.440329 26.7298C3.24699 28.8484 6.51344 29.9678 9.88598 29.9678C14.8248 29.9678 19.3506 27.711 22.6309 23.6135C25.7698 19.6918 27.4965 14.4223 27.4106 9.07466C28.6005 7.86359 30 5.55114 30 3.29729C30 2.43332 29.2118 1.88488 28.5727 2.32513C27.4548 3.10647 26.4355 3.31082 25.3871 2.96072C23.2461 0.478479 20.0592 -0.044414 17.3738 1.67753C15.0269 3.18009 13.7221 5.92979 13.8396 8.93492C9.87462 8.35944 6.21155 5.9944 3.65751 2.31912C3.23815 1.7196 2.44238 1.79022 2.10892 2.46938C0.878634 4.97566 0.891265 7.88012 1.96113 10.2256C1.45209 10.3323 1.13757 10.8417 1.13757 11.3931C1.13757 13.7506 2.02934 15.9173 3.46552 17.3959C3.19773 17.7024 3.10931 18.1577 3.223 18.5634C3.85456 20.8202 5.28442 22.5842 7.07174 23.4677C5.12779 24.5721 2.97795 24.9403 1.06431 24.6608C0.0740226 24.5015 -0.414807 26.0852 0.440329 26.7298ZM10.1449 23.8539C10.8535 23.2063 10.4771 21.857 9.58789 21.8344C8.02161 21.7954 6.59554 20.8773 5.70756 19.4333C6.13576 19.4003 6.57912 19.3222 7.001 19.1869C7.96224 18.8774 7.91677 17.2276 6.94037 16.9947C5.16821 16.571 3.77751 15.0353 3.25584 13.058C3.73204 13.1977 4.21708 13.2758 4.70085 13.2864C5.65957 13.2924 6.02208 11.8304 5.24021 11.2188C3.47815 9.83796 2.72659 7.3993 3.22426 5.10638C6.30123 8.81471 10.4759 11.049 14.8918 11.3015C15.5246 11.348 15.9995 10.6403 15.8606 9.92361C15.2606 6.82982 16.7132 4.66162 18.2731 3.66242C19.8167 2.67072 22.2949 2.36119 24.1947 4.73224C24.7593 5.43995 26.6641 5.467 27.6329 5.19804C27.1984 6.1717 26.5302 7.09578 25.9049 7.61567C25.6384 7.83805 25.4856 8.20768 25.502 8.59384C25.7054 13.5298 24.1593 18.4371 21.2604 22.0568C18.3401 25.7036 14.3019 27.7125 9.88725 27.7125C8.1315 27.7125 6.40986 27.3729 4.78296 26.7178C6.72817 26.27 8.57612 25.2903 10.1449 23.8539Z" fill="white"/>
</svg>
